<?xml version="1.0" encoding="UTF-8"?>
<svg version="1.1" xmlns="http://www.w3.org/2000/svg" width="1024" height="1024">
<path d="M0 0 C337.92 0 675.84 0 1024 0 C1024 337.92 1024 675.84 1024 1024 C686.08 1024 348.16 1024 0 1024 C0 686.08 0 348.16 0 0 Z " fill="#FDFDFD" transform="translate(0,0)"/>
<path d="M0 0 C2.30715922 0.00112965 4.61431988 0.00049232 6.92147827 -0.00177002 C13.15623342 -0.00291348 19.39067816 0.02053655 25.62536144 0.04852581 C32.15161231 0.07360069 38.67787099 0.07588627 45.2041626 0.08062744 C56.14885816 0.09096478 67.09344553 0.11658308 78.03808594 0.15234375 C89.30565835 0.18912104 100.57319991 0.21740471 111.84082031 0.234375 C112.88452674 0.23595134 112.88452674 0.23595134 113.94931814 0.23755953 C117.44034301 0.24278009 120.93136809 0.24783482 124.42239332 0.25280714 C153.33407923 0.2942006 182.24565017 0.36488833 211.15722656 0.45410156 C211.24701782 2.2846106 211.24701782 2.2846106 211.33862305 4.15209961 C211.42250416 5.77751605 211.50658026 7.40292244 211.59082031 9.02832031 C211.62961304 9.82975464 211.66840576 10.63118896 211.70837402 11.45690918 C212.55143756 27.43438861 218.06850926 41.45201053 230.15722656 52.45410156 C232.43211806 53.96615519 234.72804273 55.19092597 237.15722656 56.45410156 C237.48722656 57.11410156 237.81722656 57.77410156 238.15722656 58.45410156 C240.18185911 59.10623448 240.18185911 59.10623448 242.15722656 59.45410156 C242.15722656 60.11410156 242.15722656 60.77410156 242.15722656 61.45410156 C243.27097656 61.76347656 244.38472656 62.07285156 245.53222656 62.39160156 C249.15722656 63.45410156 249.15722656 63.45410156 251.15722656 64.45410156 C253.26480708 64.55170884 255.37551303 64.5848736 257.48535156 64.58691406 C258.76023437 64.58820313 260.03511719 64.58949219 261.34863281 64.59082031 C262.01523926 64.58872559 262.6818457 64.58663086 263.36865234 64.58447266 C265.38549454 64.57915882 267.40211038 64.58440199 269.41894531 64.59082031 C270.69898438 64.58953125 271.97902344 64.58824219 273.29785156 64.58691406 C274.46864258 64.58578613 275.63943359 64.5846582 276.84570312 64.58349609 C280.03708072 64.45879614 283.01660062 64.00723359 286.15722656 63.45410156 C286.20377284 72.65174076 286.23920823 81.84933878 286.26085091 91.0470705 C286.27124354 95.31893924 286.28531913 99.5907268 286.30810547 103.86254883 C286.32999638 107.99282302 286.34182909 112.12301962 286.34698105 116.2533474 C286.35064787 117.82123217 286.35780736 119.38911318 286.36868668 120.95696449 C286.48710477 138.74629125 284.23321884 151.87078028 271.57128906 165.23144531 C261.75005023 174.2739775 249.68333887 178.07465565 236.55104065 177.96876526 C234.87742813 177.97918355 234.87742813 177.97918355 233.17000526 177.98981231 C229.45923905 178.00799925 225.74911817 177.99784069 222.03833008 177.98754883 C219.36653686 177.99461148 216.69478833 178.00322214 214.02301025 178.01365662 C207.53600437 178.0352263 201.04917438 178.0351879 194.56214447 178.02703107 C189.28646289 178.02071462 184.01083236 178.02188313 178.73515129 178.02830315 C177.98243274 178.0292048 177.22971418 178.03010646 176.45418597 178.03103543 C174.92473061 178.03288676 173.39527526 178.03474932 171.86581992 178.03662299 C157.54475281 178.05317694 143.2237844 178.04450276 128.90272325 178.02763741 C115.81996011 178.01294252 102.73742669 178.02757009 89.65469313 178.05640758 C76.19807426 178.08584672 62.74156123 178.09676072 49.28491157 178.08722538 C47.76098027 178.0862029 46.23704894 178.08520829 44.7131176 178.08424187 C43.96344891 178.08376548 43.21378021 178.08328909 42.44139429 178.08279826 C37.17697387 178.08064009 31.91265436 178.09040626 26.6482563 178.10501289 C20.22548453 178.1225861 13.80300545 178.12234784 7.38024492 178.09966124 C4.10766878 178.08856377 0.8357102 178.08798664 -2.43686104 178.10396194 C-5.99492802 178.1199526 -9.55160164 178.10488244 -13.10960388 178.08229065 C-14.12937535 178.09412638 -15.14914682 178.10596211 -16.19982046 178.11815649 C-28.19116649 177.96428741 -39.11847099 172.54878767 -47.92871094 164.56347656 C-57.98215338 154.16336369 -61.97608142 142.20121015 -62.01977539 127.96728516 C-62.02634659 127.02983459 -62.03291779 126.09238403 -62.03968811 125.12652588 C-62.05933927 122.035196 -62.07106629 118.94391454 -62.08105469 115.85253906 C-62.08716798 114.26147276 -62.08716798 114.26147276 -62.09340477 112.6382637 C-62.11423199 107.02235359 -62.12854743 101.40646766 -62.13793945 95.79052734 C-62.14898878 90.01405887 -62.18338166 84.23797718 -62.22311115 78.46164513 C-62.24935689 73.9987012 -62.25763842 69.53584831 -62.26122093 65.07283401 C-62.26606733 62.94475318 -62.27762517 60.81667588 -62.29625893 58.68867111 C-62.4486067 40.13534696 -60.11605925 27.02720158 -46.90527344 13.14160156 C-33.13136919 0.05244208 -18.01020539 -0.12375706 0 0 Z " fill="#38DADC" transform="translate(399.8427734375,400.5458984375)"/>
<path d="M0 0 C0.93110617 -0.00445784 1.86221235 -0.00891569 2.82153386 -0.01350862 C4.35856543 -0.01323207 4.35856543 -0.01323207 5.92664814 -0.01294994 C7.55748898 -0.01846498 7.55748898 -0.01846498 9.2212761 -0.02409142 C12.88310669 -0.03514962 16.54490893 -0.03897573 20.20675373 -0.04278088 C22.82472544 -0.04904389 25.44269625 -0.05569055 28.06066608 -0.0626936 C35.93048568 -0.08245597 43.80030656 -0.09252406 51.67014477 -0.10142139 C55.37645884 -0.10580478 59.08277149 -0.11117147 62.78908443 -0.11641026 C75.11028433 -0.13342253 87.43148334 -0.14791653 99.75269318 -0.155159 C102.9501079 -0.15706888 106.14752262 -0.15898922 109.34493732 -0.16094494 C110.53698606 -0.16167055 110.53698606 -0.16167055 111.75311659 -0.16241082 C124.62565328 -0.17071046 137.49809704 -0.19604624 150.37059315 -0.22852562 C163.58735367 -0.26160166 176.80406696 -0.27960826 190.02086908 -0.28280324 C197.44127434 -0.28496787 204.86154407 -0.29370949 212.28190899 -0.31926441 C219.26274374 -0.34325013 226.2433309 -0.34679365 233.22419834 -0.33650303 C235.78642748 -0.33600663 238.34866847 -0.34235748 240.91086102 -0.35605907 C244.40925556 -0.37372033 247.90676895 -0.36669913 251.40516376 -0.35352612 C252.41869787 -0.36449536 253.43223197 -0.37546461 254.47647923 -0.38676625 C261.80199537 -0.32018806 267.16320652 1.22474417 272.72555256 6.09906483 C273.26438068 6.75004139 273.80320881 7.40101795 274.35836506 8.07172108 C274.91266193 8.72011951 275.46695881 9.36851795 276.03805256 10.03656483 C279.51723329 15.08607848 279.78483064 19.81158516 279.78976154 25.80487537 C279.79808506 26.66736393 279.80640858 27.52985249 279.81498432 28.41847706 C279.8390454 31.26517752 279.84785289 34.1116485 279.85445881 36.95843983 C279.86343003 38.94516027 279.87255197 40.93188004 279.88181782 42.91859913 C279.89830117 47.08383288 279.90600641 51.24898634 279.90890217 55.41425037 C279.91427681 60.73260602 279.95192192 66.05019884 279.99764633 71.36833954 C280.02750149 75.47350739 280.03462761 79.5784937 280.03562832 83.68376064 C280.03981595 85.64324712 280.05219126 87.60273486 280.07314587 89.56211376 C280.28431079 111.02014323 280.28431079 111.02014323 272.66914082 119.04637623 C266.28274397 125.06177139 260.27183697 125.42951159 251.8130312 125.41510487 C250.72550625 125.42104711 249.6379813 125.42698936 248.51750106 125.43311167 C244.86652429 125.45048086 241.21567872 125.45350173 237.56466389 125.4564867 C234.94964028 125.4657434 232.33461938 125.47579277 229.71960163 125.48657703 C222.60995573 125.5137154 215.50033243 125.52578879 208.39064336 125.53459835 C203.94901347 125.54012821 199.50739226 125.54860385 195.06576824 125.5576067 C182.76165057 125.58198876 170.45753982 125.60258776 158.15339851 125.60935688 C156.97265705 125.61001558 156.97265705 125.61001558 155.76806222 125.61068758 C154.58453819 125.61134242 154.58453819 125.61134242 153.37710458 125.61201048 C151.77832877 125.6128974 150.17955297 125.61379053 148.58077717 125.61468983 C147.39121187 125.61535412 147.39121187 125.61535412 146.17761495 125.61603183 C133.33236221 125.62392501 120.48733658 125.65882579 107.64217154 125.70540887 C94.44567111 125.75287868 81.24928453 125.77776253 68.05269736 125.78009272 C60.64672261 125.7819239 53.24104378 125.79336929 45.83515072 125.82973194 C38.86731711 125.86382381 31.90005305 125.86700763 24.93216038 125.84945393 C22.37721281 125.84791283 19.82223511 125.85660345 17.26736355 125.87637043 C13.77378124 125.90181128 10.28218661 125.89005854 6.78861713 125.86920643 C5.78227295 125.88531924 4.77592877 125.90143205 3.73908931 125.91803312 C-3.57156574 125.81627707 -8.80766978 123.75111515 -14.51663494 119.13422108 C-19.88737698 112.53488305 -20.66624615 106.82097021 -20.70950603 98.45355701 C-20.71768353 97.57824833 -20.72586102 96.70293964 -20.73428631 95.80110645 C-20.75908026 92.9069432 -20.7756409 90.01282879 -20.79007244 87.11859608 C-20.79539612 86.1282864 -20.8007198 85.13797672 -20.8062048 84.11765766 C-20.83291019 78.87595361 -20.85229352 73.63427316 -20.8667326 68.39252186 C-20.88007134 64.06060132 -20.90792682 59.72915187 -20.94876385 55.39740467 C-20.99813227 50.16021746 -21.0228587 44.92345751 -21.02995968 39.68604755 C-21.036663 37.69419406 -21.05186104 35.70234977 -21.07585049 33.71062946 C-21.10757471 30.91740527 -21.107528 28.12582133 -21.10013103 25.33246326 C-21.11653637 24.51659245 -21.1329417 23.70072163 -21.14984417 22.86012745 C-21.07258331 15.70007594 -18.21080159 11.01095946 -13.38382244 5.85687733 C-12.72640057 5.30902576 -12.06897869 4.7611742 -11.39163494 4.19672108 C-10.72905682 3.63082264 -10.06647869 3.0649242 -9.38382244 2.48187733 C-6.3074514 0.26148401 -3.67424933 0.00815739 0 0 Z " fill="#FDFDFD" transform="translate(382.5166349411011,659.8657789230347)"/>
<path d="M0 0 C1.06235778 -0.00538554 2.12471556 -0.01077108 3.219266 -0.01631981 C6.76117015 -0.03056981 10.30269901 -0.02350279 13.84461975 -0.01637268 C16.39126891 -0.02207775 18.93791552 -0.02904254 21.48455811 -0.03717041 C27.67303771 -0.05324064 33.86137988 -0.05520566 40.049874 -0.04995751 C45.08200208 -0.04590832 50.11410022 -0.04736823 55.14622688 -0.05270576 C55.86371417 -0.05345419 56.58120145 -0.05420261 57.32043077 -0.05497371 C58.77821966 -0.05650526 60.23600854 -0.05804361 61.69379742 -0.05958868 C75.34951403 -0.07330113 89.00517327 -0.06788475 102.66088856 -0.05640347 C115.14048036 -0.04647124 127.6199239 -0.05941375 140.09949284 -0.08333766 C152.93000227 -0.10774805 165.76044269 -0.11733184 178.59097487 -0.11068493 C185.78777445 -0.10719716 192.98446002 -0.10939553 200.18124199 -0.12693596 C206.94879588 -0.14322644 213.71602181 -0.13844625 220.48358345 -0.11963081 C222.96434093 -0.1159458 225.4451194 -0.11905079 227.92585754 -0.1295166 C231.31816589 -0.14273335 234.70953814 -0.13117164 238.10180664 -0.11352539 C239.07818571 -0.1231304 240.05456477 -0.1327354 241.06053108 -0.14263147 C248.60187747 -0.06218636 255.45961166 1.55893707 261.51673889 6.24705505 C262.02334045 6.8709613 262.52994202 7.49486755 263.05189514 8.13768005 C263.8388678 9.05807068 263.8388678 9.05807068 264.64173889 9.99705505 C268.39410522 16.08842958 269.56135047 21.67487235 269.50257874 28.68040466 C269.51046417 29.86016121 269.51046417 29.86016121 269.51850891 31.06375122 C269.5316111 33.63938313 269.52300508 36.21438663 269.51283264 38.7900238 C269.5148564 40.5954907 269.51777034 42.40095679 269.52153015 44.2064209 C269.52594044 47.98135702 269.51956508 51.75607943 269.50550842 55.5309906 C269.48842964 60.35035976 269.49825767 65.16922712 269.51622581 69.98857784 C269.52710927 73.71454593 269.52359625 77.4403967 269.51584244 81.16636848 C269.51385238 82.94243493 269.51625736 84.71851229 269.5232811 86.49456596 C269.58437141 106.28374027 269.58437141 106.28374027 264.57142639 113.6572113 C264.02873108 114.16639099 263.48603577 114.67557068 262.92689514 115.20018005 C262.39709045 115.72225037 261.86728577 116.24432068 261.32142639 116.7822113 C254.39751925 121.81889419 248.65419496 122.97322066 240.15922546 122.90907288 C239.07730435 122.91672397 237.99538323 122.92437506 236.88067663 122.93225801 C233.26648881 122.95284493 229.65294081 122.94494805 226.03871155 122.93699646 C223.44294651 122.94569349 220.84718661 122.95606073 218.25143433 122.9679718 C211.93915659 122.99342575 205.62704917 122.99705825 199.31472875 122.99237128 C194.1819768 122.9888001 189.0492764 122.99231452 183.91653061 123.00082016 C182.81928124 123.00260573 182.81928124 123.00260573 181.69986521 123.00442737 C180.21364979 123.00685096 178.72743438 123.00927923 177.24121897 123.01171212 C163.31414372 123.0334478 149.38716541 123.02914544 135.46008472 123.01694243 C122.73140287 123.00660563 110.0030272 123.02911327 97.27440591 123.06713887 C84.19079182 123.105924 71.10732247 123.12240272 58.02365053 123.11489236 C50.68369555 123.1110725 43.34400113 123.11600222 36.00409317 123.14432144 C29.10102339 123.17068666 22.1985756 123.16559114 15.29550743 123.13949966 C12.76475886 123.13476882 10.23396718 123.14023518 7.70326805 123.15674591 C4.24264717 123.17769239 0.78407998 123.161475 -2.6764679 123.13612366 C-3.67298382 123.15087223 -4.66949975 123.1656208 -5.69621313 123.18081629 C-14.13421496 123.05117056 -20.43091679 119.93094986 -26.32310486 113.88768005 C-29.94576351 108.0914262 -31.32917123 103.6881838 -31.28965759 96.84715271 C-31.29652084 96.01056625 -31.30338409 95.1739798 -31.31045532 94.31204224 C-31.32869145 91.55843421 -31.32488995 88.80539777 -31.31919861 86.05174255 C-31.32376239 84.12891963 -31.32906854 82.20609835 -31.33508301 80.28327942 C-31.3440082 76.25681424 -31.34159822 72.23054745 -31.33164978 68.2040863 C-31.320169 63.05714259 -31.34036101 57.91088586 -31.36956692 52.76403236 C-31.38796002 48.7936115 -31.38763012 44.82335426 -31.3819294 40.85290146 C-31.38177652 38.95598259 -31.38779299 37.05905239 -31.40022087 35.16217422 C-31.41518561 32.5033503 -31.40441363 29.84578249 -31.38731384 27.18699646 C-31.39698181 26.41167068 -31.40664978 25.63634491 -31.41661072 24.83752441 C-31.32171423 17.75119118 -28.70892869 11.66023832 -23.69810486 6.57518005 C-23.18892517 6.03248474 -22.67974548 5.48978943 -22.15513611 4.9306488 C-15.40792474 0.34347412 -7.92104037 -0.04864637 0 0 Z " fill="#FCFCFD" transform="translate(392.88560485839844,199.61231994628906)"/>
<path d="M0 0 C1.67104924 -0.00807831 1.67104924 -0.00807831 3.37585706 -0.01631981 C7.09274143 -0.03057794 10.80926859 -0.02350069 14.52616882 -0.01637268 C17.19765848 -0.02207741 19.86912287 -0.02894193 22.54060364 -0.03717041 C29.03454404 -0.05432948 35.52838756 -0.05520434 42.02234475 -0.04995751 C47.30378776 -0.04590866 52.58520224 -0.04736784 57.86664391 -0.05270576 C58.61963344 -0.05345419 59.37262297 -0.05420261 60.14843037 -0.05497371 C61.6783688 -0.05650526 63.20830722 -0.05804361 64.73824563 -0.05958868 C79.07264066 -0.07330362 93.40698104 -0.06788344 107.74137481 -0.05640347 C120.83716611 -0.0464753 133.93281604 -0.0594063 147.02858553 -0.08333766 C160.49417086 -0.10775827 173.95969042 -0.11732907 187.42529744 -0.11068493 C194.97762773 -0.10719887 202.52984938 -0.10938393 210.08216286 -0.12693596 C216.51226423 -0.14169519 222.94218048 -0.14224521 229.37227837 -0.12486505 C232.64881768 -0.11638242 235.9249607 -0.11632626 239.20149422 -0.1295166 C242.76386966 -0.1427591 246.32535736 -0.13114867 249.88769531 -0.11352539 C251.41939888 -0.1279329 251.41939888 -0.1279329 252.98204595 -0.14263147 C264.88569087 -0.02210665 274.45819572 3.92507033 283.63432312 11.38768005 C284.25951843 11.86463318 284.88471375 12.3415863 285.52885437 12.83299255 C292.6754967 18.99555998 298.17067557 30.10292763 299.63432312 39.38768005 C299.78738357 42.39486788 299.79146705 45.39901429 299.79545593 48.40965271 C299.80042084 49.30954926 299.80538574 50.2094458 299.8105011 51.13661194 C299.82508261 54.10833 299.83191914 57.07999462 299.83744812 60.05174255 C299.84320421 62.12574768 299.84896189 64.19975281 299.85472107 66.27375793 C299.86522059 70.62309516 299.87106968 74.97241397 299.8745575 79.32176208 C299.88003066 84.87296981 299.90403804 90.42393084 299.93252945 95.97506142 C299.95123131 100.26125276 299.95636551 104.54738567 299.95789337 108.83361435 C299.96090495 110.87877623 299.96888248 112.92393746 299.98207855 114.96905899 C300.08541471 132.2196588 298.83659878 147.1649654 286.25932312 160.26268005 C277.99832503 168.02469168 268.33172972 173.49200017 256.77344418 173.52469444 C255.81643893 173.52976899 254.85943369 173.53484353 253.87342829 173.54007185 C252.8300581 173.5405696 251.78668791 173.54106736 250.71170044 173.5415802 C249.59700176 173.54596245 248.48230308 173.55034471 247.33382565 173.55485976 C243.59080942 173.5682366 239.84781673 173.57442415 236.1047821 173.58055115 C233.42403995 173.58845299 230.7433008 173.5967172 228.06256104 173.60533142 C220.01261608 173.6298224 211.96266503 173.64447752 203.91269431 173.65739149 C201.63763513 173.66110577 199.36257655 173.6650788 197.08751798 173.66914415 C182.94832515 173.69438254 168.8091313 173.71642742 154.66992092 173.7288723 C151.39690586 173.73180181 148.12389084 173.7347635 144.85087585 173.73777771 C143.63069603 173.73889679 143.63069603 173.73889679 142.38586611 173.74003847 C129.21544374 173.75268569 116.04515655 173.78590232 102.87479734 173.82757954 C89.3415517 173.87005275 75.80837519 173.89357351 62.2750631 173.89879286 C54.68126316 173.90220082 47.08767452 173.91388317 39.49394035 173.9468956 C33.02531103 173.97497143 26.55693637 173.98586259 20.08825087 173.97470014 C16.79138862 173.96953257 13.49516772 173.97503274 10.19836044 173.99716568 C6.61374433 174.01991496 3.03045566 174.01153362 -0.5541687 173.99568176 C-1.58192384 174.00956385 -2.60967898 174.02344594 -3.66857821 174.03774869 C-16.72345693 173.89623209 -26.50593285 167.87571382 -35.74458313 159.13768005 C-45.89476625 148.70322492 -48.50771793 137.36854475 -48.52680969 123.21458435 C-48.53425705 121.87652237 -48.53425705 121.87652237 -48.54185486 120.51142883 C-48.55638689 117.57824414 -48.56326302 114.64511349 -48.56880188 111.7118988 C-48.57162926 110.70477152 -48.57445663 109.69764423 -48.57736969 108.65999794 C-48.59232514 103.33167384 -48.60157795 98.00337657 -48.60591125 92.67503357 C-48.61139443 87.19104412 -48.63542983 81.70730313 -48.66388321 76.22339153 C-48.68256876 71.98785702 -48.68771831 67.7523817 -48.68924713 63.51680946 C-48.69226017 61.49594068 -48.70024272 59.4750726 -48.71343231 57.45424461 C-48.73061908 54.61896052 -48.72858208 51.78427537 -48.72212219 48.94895935 C-48.73133698 48.12629074 -48.74055176 47.30362213 -48.75004578 46.45602417 C-48.66317584 34.19338272 -43.47041018 22.53241816 -35.11567688 13.57518005 C-24.66371507 3.99030925 -13.98932414 -0.08180015 0 0 Z M-19.17817688 32.38768005 C-20.02315735 33.37768005 -20.02315735 33.37768005 -20.88520813 34.38768005 C-24.43696604 39.18583321 -24.65804277 43.17891729 -24.64033508 49.06834412 C-24.64544601 49.9436528 -24.65055695 50.81896149 -24.65582275 51.72079468 C-24.6697242 54.61503436 -24.66876106 57.50903594 -24.66645813 60.40330505 C-24.67034576 62.41866647 -24.67468057 64.43402706 -24.67944336 66.4493866 C-24.6869075 70.67607781 -24.68661361 74.90268551 -24.68135071 79.12937927 C-24.67556658 84.53408564 -24.69246063 89.93844813 -24.71569538 95.34309769 C-24.73046323 99.50736984 -24.73130008 103.67155987 -24.72818565 107.83585358 C-24.72869768 109.82766651 -24.73391317 111.81948419 -24.74399757 113.81127167 C-24.75639889 116.60421723 -24.74954734 119.39650207 -24.73799133 122.18943787 C-24.74563507 123.00530869 -24.75327881 123.8211795 -24.76115417 124.66177368 C-24.70093255 131.280403 -23.46263152 136.81142149 -19.17817688 142.07518005 C-11.85557674 148.09598462 -6.88756456 150.12796021 2.67887878 150.01586914 C3.77037814 150.02296353 4.86187749 150.03005792 5.98645258 150.03736728 C9.63310933 150.05492777 13.27869756 150.03685096 16.92533875 150.01878357 C19.54405197 150.02392308 22.16276173 150.03120459 24.78146362 150.04046631 C31.14928148 150.05881585 37.51679186 150.05034877 43.88460004 150.03237808 C49.06123162 150.01833484 54.23777991 150.01446298 59.41442871 150.01782036 C60.15205646 150.0182978 60.88968421 150.01877524 61.64966431 150.01926715 C63.14828521 150.02029352 64.64690609 150.02134888 66.14552695 150.02243292 C79.38811025 150.03099454 92.6305454 150.01434253 105.87309265 149.98460388 C118.71397627 149.95576776 131.55464647 149.94868361 144.39555359 149.96409607 C158.38879486 149.98086871 172.38193488 149.98488162 186.37517881 149.96738571 C187.86819171 149.96554138 189.36120461 149.96370665 190.85421753 149.96188164 C191.58874937 149.96096955 192.32328121 149.96005746 193.0800716 149.95911773 C198.24862959 149.95351893 203.41713806 149.95681338 208.58569336 149.96342659 C215.54612418 149.97197921 222.50624258 149.95896385 229.46662331 149.93157768 C232.02077637 149.92469246 234.57495813 149.9245973 237.12911034 149.93179321 C240.61633875 149.94048564 244.10261833 149.9245335 247.58976746 149.90234375 C249.10495271 149.9147049 249.10495271 149.9147049 250.65074778 149.92731577 C257.78150335 149.84360353 263.11426314 148.35448896 268.62260437 143.7118988 C269.05959656 143.17178162 269.49658875 142.63166443 269.94682312 142.07518005 C270.39670593 141.54279724 270.84658875 141.01041443 271.31010437 140.4618988 C275.16471082 134.42415242 276.07770869 129.48165618 276.03837585 122.45823669 C276.04523911 121.5922435 276.05210236 120.72625031 276.05917358 119.83401489 C276.07738508 116.9884524 276.07361219 114.14344423 276.06791687 111.2978363 C276.07248135 109.30918195 276.07778772 107.32052917 276.08380127 105.33187866 C276.09272127 101.17015665 276.09032183 97.00862665 276.08036804 92.84690857 C276.06887941 87.52624689 276.0890941 82.20624899 276.11828518 76.88567448 C276.13667282 72.78057682 276.1363496 68.67563748 276.13064766 64.57050896 C276.13049476 62.60939541 276.13651293 60.64827092 276.14893913 58.68719673 C276.16389597 55.9398859 276.1531379 53.19379194 276.1360321 50.44651794 C276.14570007 49.644711 276.15536804 48.84290405 276.16532898 48.01679993 C276.07891381 41.35469011 274.0771614 36.17533248 269.66947937 31.14549255 C269.01850281 30.60666443 268.36752625 30.0678363 267.69682312 29.51268005 C267.04842468 28.95838318 266.40002625 28.4040863 265.73197937 27.83299255 C260.01273162 23.8923563 254.66897803 24.09982456 247.94380188 24.12025452 C246.30933941 24.11345785 246.30933941 24.11345785 244.6418575 24.10652387 C240.98386696 24.0938448 237.32602464 24.09550252 233.66801453 24.09715271 C231.04812427 24.09116969 228.42823577 24.08436467 225.80834961 24.07679749 C219.42651909 24.06019164 213.04472551 24.05468814 206.66287519 24.05357273 C201.47521503 24.05262212 196.28756705 24.04851116 191.09991074 24.04217148 C176.38978485 24.02456068 161.67968814 24.01533243 146.96955164 24.01683243 C146.1766899 24.01691234 145.38382816 24.01699225 144.56694031 24.01707458 C143.77310984 24.01715635 142.97927938 24.01723811 142.16139345 24.01732235 C129.29476907 24.01813534 116.42826173 23.99899394 103.56167121 23.97079785 C90.34823577 23.94207028 77.13485741 23.92825747 63.92138994 23.9299854 C56.50384921 23.93064932 49.0864312 23.92515627 41.66891861 23.9036293 C34.693794 23.88351581 27.71893272 23.8840899 20.74379539 23.89866257 C18.18276148 23.90075764 15.62171153 23.89600845 13.06070518 23.88394165 C9.56643382 23.86854296 6.07306314 23.8777629 2.57881165 23.89320374 C1.56372894 23.88291661 0.54864623 23.87262948 -0.49719656 23.86203063 C-8.59107772 23.94114912 -13.84635055 25.99448315 -19.17817688 32.38768005 Z " fill="#2A333E" transform="translate(386.3656768798828,635.6123199462891)"/>
<path d="M0 0 C1.11473839 -0.00538554 2.22947679 -0.01077108 3.37799513 -0.01631981 C7.09721341 -0.03057794 10.8160747 -0.02350071 14.53530884 -0.01637268 C17.208421 -0.02207737 19.88150792 -0.02894186 22.55461121 -0.03717041 C29.0522266 -0.05432903 35.54974517 -0.05520451 42.04737733 -0.04995751 C47.33121261 -0.04590892 52.61501937 -0.04736753 57.8988533 -0.05270576 C59.02877069 -0.0538284 59.02877069 -0.0538284 60.18151469 -0.05497371 C61.71201884 -0.05650526 63.24252299 -0.05804361 64.77302714 -0.05958868 C79.11216079 -0.07330321 93.45123981 -0.06788351 107.79037221 -0.05640347 C120.89330555 -0.04647319 133.99609764 -0.05941003 147.0990092 -0.08333766 C160.57023976 -0.10775153 174.04140458 -0.11733085 187.51265681 -0.11068493 C195.06886759 -0.10719766 202.62496979 -0.10939213 210.18116379 -0.12693596 C216.61385559 -0.14168665 223.04636234 -0.14225617 229.47905062 -0.12486505 C232.75749139 -0.11637584 236.03553549 -0.11633807 239.31397057 -0.1295166 C242.87669657 -0.14274183 246.43853248 -0.13116388 250.0012207 -0.11352539 C251.02526925 -0.1231304 252.04931781 -0.1327354 253.10439813 -0.14263147 C265.50013473 -0.01686587 277.17521335 5.14633051 286.31509399 13.51268005 C299.3355379 27.54890327 300.10477658 43.8862477 300.09634399 61.94236755 C300.10346488 63.81599651 300.11116661 65.68962335 300.11941528 67.56324768 C300.13278427 71.47142108 300.134463 75.37939269 300.12857056 79.2875824 C300.12267835 84.25552565 300.15328222 89.22249036 300.19368744 94.19024467 C300.21973913 98.0545712 300.22242621 101.9186674 300.21879578 105.78306961 C300.22047038 107.61281418 300.22994961 109.44257135 300.24794006 111.27222824 C300.39811552 128.42818634 297.61942209 142.47503642 285.63540649 155.5634613 C274.51989651 166.37360013 260.61744986 169.70195456 245.61032104 169.65510559 C244.53374575 169.6596367 243.45717046 169.66416782 242.34797168 169.66883624 C238.75786665 169.68144779 235.16791396 169.67986194 231.57778931 169.6782074 C228.9966004 169.68419466 226.41541329 169.69100066 223.83422852 169.69856262 C217.56055518 169.71512774 211.28691945 169.72067013 205.01322606 169.72178738 C199.91009523 169.72273997 194.80697672 169.7268608 189.70384979 169.73318863 C175.21376299 169.75078869 160.72370573 169.76002942 146.23360816 169.75852768 C145.45354536 169.75844777 144.67348256 169.75836786 143.86978149 169.75828552 C143.08875874 169.75820376 142.30773599 169.758122 141.50304589 169.75803776 C128.85089041 169.75722518 116.19885408 169.77635898 103.54673305 169.80456226 C90.53428409 169.8333383 77.52189314 169.84709996 64.50941157 169.8453747 C57.21246349 169.84471244 49.91564031 169.85013283 42.61872101 169.8717308 C35.75350751 169.89192189 28.88856122 169.89122082 22.0233345 169.87669754 C19.50996897 169.87461138 16.99658685 169.87929873 14.48324966 169.89141846 C-5.19431908 169.98012851 -20.54768953 168.62813771 -35.68490601 154.63768005 C-45.38297375 144.42185099 -48.50286192 132.26884167 -48.54940796 118.59764099 C-48.55597916 117.74622025 -48.56255035 116.8947995 -48.56932068 116.01757812 C-48.58892053 113.21906932 -48.60068565 110.42061381 -48.61068726 107.62205505 C-48.61476278 106.66030617 -48.61883831 105.69855728 -48.62303734 104.70766449 C-48.64384015 99.61809509 -48.65816748 94.5285522 -48.66757202 89.43894958 C-48.67863174 84.20608012 -48.7130435 78.97363636 -48.75274372 73.74091721 C-48.77898777 69.69492343 -48.78727069 65.64903007 -48.7908535 61.60295868 C-48.79569832 59.67500682 -48.80725159 57.74705881 -48.82589149 55.81919098 C-48.98045564 38.77580427 -46.11296373 25.50947549 -34.05990601 12.57518005 C-24.18831396 3.36611096 -13.23515746 -0.07733896 0 0 Z M-17.74740601 30.13768005 C-18.68713257 31.08900818 -18.68713257 31.08900818 -19.64584351 32.05955505 C-23.94164415 37.85208262 -24.81884406 43.02080944 -24.79232788 50.02586365 C-24.80079742 50.86098984 -24.80926697 51.69611603 -24.81799316 52.55654907 C-24.84127083 55.2998962 -24.8423875 58.04267939 -24.84115601 60.78611755 C-24.84826336 62.70511598 -24.8559632 64.62411229 -24.86422729 66.54310608 C-24.87765107 70.55939139 -24.87925042 74.5754802 -24.87338257 78.59178162 C-24.86748973 83.72190077 -24.89807076 88.85107249 -24.93849945 93.98100853 C-24.96443232 97.94289674 -24.96724878 101.90455855 -24.96360779 105.86651993 C-24.96529393 107.75704452 -24.97488744 109.64758015 -24.99275208 111.53802109 C-25.4616526 125.37501329 -25.4616526 125.37501329 -19.37240601 137.38768005 C-17.41063292 139.51230427 -17.41063292 139.51230427 -15.30990601 140.82518005 C-14.65892944 141.27764099 -14.00795288 141.73010193 -13.33724976 142.1962738 C-9.67574626 144.41646976 -7.10742619 145.63729172 -2.76395798 145.64494896 C-1.37476233 145.6546223 -1.37476233 145.6546223 0.04249787 145.66449106 C1.05649085 145.66139385 2.07048382 145.65829665 3.11520386 145.65510559 C4.19511841 145.6596367 5.27503295 145.66416782 6.38767219 145.66883624 C10.01879597 145.68153135 13.64977074 145.67985655 17.28091431 145.6782074 C19.87933038 145.6841895 22.47774468 145.6909943 25.07615662 145.69856262 C31.40966445 145.71517924 37.74313506 145.72067249 44.07666287 145.72178738 C49.22572283 145.72273768 54.37477052 145.72684711 59.5238266 145.73318863 C74.12411996 145.75080402 88.72438392 145.76002721 103.32468799 145.75852768 C104.11187842 145.75844777 104.89906884 145.75836786 105.71011353 145.75828552 C106.89234216 145.75816288 106.89234216 145.75816288 108.09845421 145.75803776 C120.86746912 145.75722511 133.636366 145.77635661 146.40534678 145.80456226 C159.51818436 145.83329869 172.63096439 145.84710209 185.74383426 145.8453747 C193.10497187 145.84471099 200.46598579 145.85019486 207.82709503 145.8717308 C214.75132198 145.89185872 221.67528373 145.89126106 228.59952354 145.87669754 C231.14078591 145.87460398 233.68206449 145.87934274 236.22329903 145.89141846 C239.69319062 145.90683878 243.16217764 145.89758275 246.63204956 145.88215637 C247.63711965 145.8924435 248.64218974 145.90273062 249.67771649 145.91332948 C257.50531691 145.83645778 263.76717612 143.7902816 269.44009399 138.20018005 C269.98278931 137.69100037 270.52548462 137.18182068 271.08462524 136.6572113 C277.10379878 127.80369276 276.08393043 117.14539718 276.06118774 106.9228363 C276.06575615 105.12119349 276.07106367 103.31955241 276.07707214 101.51791382 C276.0859759 97.75315748 276.08361134 93.98861359 276.07363892 90.22386169 C276.06215131 85.42133093 276.08237144 80.6195357 276.11155605 75.81710148 C276.12998254 72.09966445 276.12961282 68.38240162 276.12391853 64.66493034 C276.12376611 62.89526271 276.12974415 61.12558267 276.14221001 59.35595894 C276.30416429 44.28795511 276.30416429 44.28795511 269.76821899 30.9853363 C269.14431274 30.47873474 268.52040649 29.97213318 267.87759399 29.45018005 C267.26400024 28.92553162 266.65040649 28.40088318 266.01821899 27.8603363 C259.0463233 23.56555742 252.8519342 22.95224623 244.85551453 23.00672913 C243.26220115 22.99970917 243.26220115 22.99970917 241.63669962 22.99254739 C238.08934668 22.98061355 234.54238121 22.99004865 230.99502563 22.99949646 C228.44690221 22.99543004 225.89878055 22.99008776 223.35066223 22.98356628 C217.15502243 22.97131376 210.95952531 22.97309767 204.76388366 22.98180421 C199.72648034 22.98858901 194.68910756 22.98949403 189.65170097 22.98623276 C188.93378948 22.98577306 188.21587798 22.98531336 187.47621159 22.98483973 C186.01761543 22.98388052 184.55901929 22.98290788 183.10042315 22.98192196 C169.43329194 22.97337388 155.76622116 22.98319272 142.09909987 22.99932306 C130.38306308 23.01272285 118.66711549 23.01039982 106.95108032 22.99656677 C93.33323732 22.98049571 79.71544727 22.97420081 66.09759611 22.98340356 C64.64416501 22.98435917 63.1907339 22.98530228 61.73730278 22.98623276 C61.02226042 22.98669558 60.30721806 22.98715841 59.57050775 22.98763526 C54.54218631 22.99022079 49.51389857 22.98586354 44.48558235 22.9787941 C37.71151815 22.9694793 30.93764792 22.9761546 24.16359138 22.99347687 C21.67919189 22.99743949 19.1947782 22.99631153 16.71038437 22.98968887 C13.31561829 22.98147466 9.92138911 22.99179426 6.5266571 23.00672913 C5.54668308 23.00003696 4.56670905 22.9933448 3.55703884 22.98644984 C-4.36539957 23.05391611 -12.0680568 24.14680537 -17.74740601 30.13768005 Z " fill="#29333E" transform="translate(386.3724060058594,176.61231994628906)"/>
<path d="M0 0 C2.30715922 0.00112965 4.61431988 0.00049232 6.92147827 -0.00177002 C13.15623342 -0.00291348 19.39067816 0.02053655 25.62536144 0.04852581 C32.15161231 0.07360069 38.67787099 0.07588627 45.2041626 0.08062744 C56.14885816 0.09096478 67.09344553 0.11658308 78.03808594 0.15234375 C89.30565835 0.18912104 100.57319991 0.21740471 111.84082031 0.234375 C112.88452674 0.23595134 112.88452674 0.23595134 113.94931814 0.23755953 C117.44034301 0.24278009 120.93136809 0.24783482 124.42239332 0.25280714 C153.33408142 0.29420061 182.24564588 0.36569798 211.15722656 0.45410156 C211.48722656 8.37410156 211.81722656 16.29410156 212.15722656 24.45410156 C209.24342163 24.45552658 206.3296167 24.4569516 203.32751465 24.4584198 C176.59664539 24.4738031 149.86588626 24.51392172 123.13509795 24.58095719 C119.63043034 24.58972375 116.12576222 24.59827359 112.62109375 24.60668945 C111.92338838 24.60836852 111.225683 24.61004758 110.50683504 24.61177752 C99.21521034 24.63843475 87.9236364 24.64754168 76.63198346 24.65014299 C65.04246404 24.65320432 53.45310028 24.67554329 41.86364603 24.71462613 C35.35533088 24.73596425 28.84726342 24.74855235 22.33891296 24.74025536 C16.21241919 24.7327207 10.08642754 24.74851529 3.96002579 24.78216171 C1.71227116 24.79040187 -0.53553332 24.79013689 -2.78328323 24.78069878 C-5.85517747 24.76907771 -8.92542591 24.78819528 -11.99719238 24.81486511 C-12.88437155 24.80419185 -13.77155072 24.79351859 -14.68561411 24.7825219 C-21.6060835 24.8944315 -26.39072759 27.11389584 -31.37023211 31.9320733 C-36.62125227 37.86302394 -37.14129848 43.04659275 -37.13330078 50.61547852 C-37.14001801 51.52994751 -37.14673523 52.4444165 -37.15365601 53.38659668 C-37.17263039 56.40524757 -37.17656003 59.42367602 -37.17871094 62.44238281 C-37.1851396 64.545996 -37.19186801 66.64960829 -37.19888306 68.7532196 C-37.21085468 73.16224235 -37.21456403 77.57118676 -37.21337891 81.98022461 C-37.21317581 87.61926627 -37.24046943 93.25780346 -37.27492332 98.89672565 C-37.2972039 103.24200225 -37.30121607 107.58715771 -37.30015945 111.93248558 C-37.30251399 114.01083297 -37.31132914 116.08918378 -37.32682419 118.16747475 C-37.34650582 121.08018532 -37.34063723 123.99181152 -37.32861328 126.90454102 C-37.3454718 128.18209511 -37.3454718 128.18209511 -37.3626709 129.48545837 C-37.29130856 136.31730972 -35.40566762 141.52944697 -30.87792969 146.69628906 C-30.22695313 147.23511719 -29.57597656 147.77394531 -28.90527344 148.32910156 C-27.93267578 149.16054688 -27.93267578 149.16054688 -26.94042969 150.00878906 C-21.27740339 153.910688 -16.0206435 153.74218991 -9.36225891 153.7215271 C-7.76159813 153.72832377 -7.76159813 153.72832377 -6.12860078 153.73525774 C-2.54670893 153.74793537 1.03503153 153.74627917 4.61694336 153.74462891 C7.18270565 153.75061212 9.74846614 153.75741719 12.31422424 153.76498413 C18.56471253 153.78159046 24.81516309 153.78709355 31.06567159 153.78820889 C36.14842429 153.78915974 41.23116457 153.79327189 46.31391335 153.79961014 C60.73215472 153.8172232 75.15036634 153.82644916 89.56861856 153.82494919 C90.34575715 153.82486928 91.12289574 153.82478937 91.92358398 153.82470703 C93.09071967 153.82458439 93.09071967 153.82458439 94.28143386 153.82445927 C106.88413833 153.82364682 119.48672316 153.84277385 132.08939304 153.87098376 C145.03729023 153.89973707 157.98512912 153.91352265 170.93305904 153.91179621 C178.19923092 153.91113305 185.46527744 153.91659254 192.73142052 153.93815231 C199.56784495 153.95830726 206.4040009 153.95766535 213.24043846 153.94311905 C215.74699795 153.94102856 218.25357395 153.94574602 220.76010513 153.95783997 C224.18764469 153.97330395 227.6142735 153.96397541 231.04179382 153.94857788 C232.02868326 153.95886501 233.0155727 153.96915213 234.03236789 153.97975099 C241.62493505 153.90461911 248.54086208 152.31705677 254.59472656 147.52441406 C255.11035156 146.88246094 255.62597656 146.24050781 256.15722656 145.57910156 C256.69347656 144.94230469 257.22972656 144.30550781 257.78222656 143.64941406 C260.82747547 138.78739734 261.41396632 134.09078372 261.47607422 128.43896484 C261.48611984 127.76509232 261.49616547 127.09121979 261.5065155 126.39692688 C261.537185 124.18943058 261.55433679 121.98205463 261.57128906 119.77441406 C261.59001383 118.23598202 261.60958822 116.6975601 261.62997437 115.15914917 C261.68116346 111.12493885 261.72085961 107.09069528 261.75811768 103.05633545 C261.79824056 98.93363306 261.84929499 94.8110674 261.89941406 90.68847656 C261.99601664 82.61044519 262.08047115 74.53234579 262.15722656 66.45410156 C263.38699219 66.32132812 264.61675781 66.18855469 265.88378906 66.05175781 C267.51661125 65.87346114 269.14942322 65.69507077 270.78222656 65.51660156 C271.59046875 65.42958984 272.39871094 65.34257812 273.23144531 65.25292969 C274.02421875 65.16591797 274.81699219 65.07890625 275.63378906 64.98925781 C276.35646973 64.91070557 277.07915039 64.83215332 277.82373047 64.7512207 C280.6158892 64.39570102 283.38337166 63.93036721 286.15722656 63.45410156 C286.20377284 72.65174076 286.23920823 81.84933878 286.26085091 91.0470705 C286.27124354 95.31893924 286.28531913 99.5907268 286.30810547 103.86254883 C286.32999638 107.99282302 286.34182909 112.12301962 286.34698105 116.2533474 C286.35064787 117.82123217 286.35780736 119.38911318 286.36868668 120.95696449 C286.48710477 138.74629125 284.23321884 151.87078028 271.57128906 165.23144531 C261.75005023 174.2739775 249.68333887 178.07465565 236.55104065 177.96876526 C234.87742813 177.97918355 234.87742813 177.97918355 233.17000526 177.98981231 C229.45923905 178.00799925 225.74911817 177.99784069 222.03833008 177.98754883 C219.36653686 177.99461148 216.69478833 178.00322214 214.02301025 178.01365662 C207.53600437 178.0352263 201.04917438 178.0351879 194.56214447 178.02703107 C189.28646289 178.02071462 184.01083236 178.02188313 178.73515129 178.02830315 C177.98243274 178.0292048 177.22971418 178.03010646 176.45418597 178.03103543 C174.92473061 178.03288676 173.39527526 178.03474932 171.86581992 178.03662299 C157.54475281 178.05317694 143.2237844 178.04450276 128.90272325 178.02763741 C115.81996011 178.01294252 102.73742669 178.02757009 89.65469313 178.05640758 C76.19807426 178.08584672 62.74156123 178.09676072 49.28491157 178.08722538 C47.76098027 178.0862029 46.23704894 178.08520829 44.7131176 178.08424187 C43.96344891 178.08376548 43.21378021 178.08328909 42.44139429 178.08279826 C37.17697387 178.08064009 31.91265436 178.09040626 26.6482563 178.10501289 C20.22548453 178.1225861 13.80300545 178.12234784 7.38024492 178.09966124 C4.10766878 178.08856377 0.8357102 178.08798664 -2.43686104 178.10396194 C-5.99492802 178.1199526 -9.55160164 178.10488244 -13.10960388 178.08229065 C-14.12937535 178.09412638 -15.14914682 178.10596211 -16.19982046 178.11815649 C-28.19116649 177.96428741 -39.11847099 172.54878767 -47.92871094 164.56347656 C-57.98215338 154.16336369 -61.97608142 142.20121015 -62.01977539 127.96728516 C-62.02634659 127.02983459 -62.03291779 126.09238403 -62.03968811 125.12652588 C-62.05933927 122.035196 -62.07106629 118.94391454 -62.08105469 115.85253906 C-62.08716798 114.26147276 -62.08716798 114.26147276 -62.09340477 112.6382637 C-62.11423199 107.02235359 -62.12854743 101.40646766 -62.13793945 95.79052734 C-62.14898878 90.01405887 -62.18338166 84.23797718 -62.22311115 78.46164513 C-62.24935689 73.9987012 -62.25763842 69.53584831 -62.26122093 65.07283401 C-62.26606733 62.94475318 -62.27762517 60.81667588 -62.29625893 58.68867111 C-62.4486067 40.13534696 -60.11605925 27.02720158 -46.90527344 13.14160156 C-33.13136919 0.05244208 -18.01020539 -0.12375706 0 0 Z " fill="#28323E" transform="translate(399.8427734375,400.5458984375)"/>
<path d="M0 0 C2.41285807 -0.01662691 4.82566557 -0.04400403 7.23828125 -0.08203125 C10.74130437 -0.13681809 14.24318822 -0.15866709 17.74658203 -0.17333984 C18.81965607 -0.19600922 19.8927301 -0.21867859 20.99832153 -0.24203491 C27.84088432 -0.2227551 31.39749357 0.68419328 36.48876953 5.35009766 C38.35233032 9.07721923 38.05426928 13.29217086 37.48876953 17.35009766 C35.61460413 20.97541374 33.41512036 23.04131405 29.48876953 24.35009766 C27.81060853 24.44096127 26.1291052 24.47521303 24.44848633 24.47607422 C22.90362801 24.48178436 22.90362801 24.48178436 21.32756042 24.48760986 C20.20900162 24.48863708 19.09044281 24.48966431 17.93798828 24.49072266 C15.54149468 24.50908747 13.14501011 24.52866101 10.74853516 24.54931641 C6.99293178 24.57796845 3.23789655 24.60008951 -0.51782227 24.60058594 C-33.42897144 24.6313584 -62.19824481 31.45333608 -87.51123047 53.35009766 C-88.34783203 53.99205078 -89.18443359 54.63400391 -90.04638672 55.29541016 C-94.54081724 59.04195604 -97.9340022 63.74727372 -101.51123047 68.35009766 C-102.12353516 69.13513672 -102.73583984 69.92017578 -103.36669922 70.72900391 C-120.87685702 94.4097894 -126.74872342 123.28435204 -122.7902832 152.25097656 C-119.4917855 171.9193596 -109.80374275 189.90864959 -97.51123047 205.35009766 C-96.81707031 206.25888672 -96.81707031 206.25888672 -96.10888672 207.18603516 C-92.7451777 211.46711936 -88.692678 214.90237582 -84.51123047 218.35009766 C-83.95177734 218.82060547 -83.39232422 219.29111328 -82.81591797 219.77587891 C-71.20727 229.01594623 -57.72775615 236.16915572 -43.51123047 240.35009766 C-42.81352539 240.55892578 -42.11582031 240.76775391 -41.39697266 240.98291016 C-24.79528079 245.69430183 -7.59112734 244.74987918 9.48876953 244.35009766 C8.91843994 243.7902417 8.34811035 243.23038574 7.76049805 242.65356445 C5.18555501 240.12013157 2.61835359 237.57899253 0.05126953 235.03759766 C-0.8465625 234.15652344 -1.74439453 233.27544922 -2.66943359 232.36767578 C-3.5234375 231.52011719 -4.37744141 230.67255859 -5.25732422 229.79931641 C-6.0480835 229.01903076 -6.83884277 228.23874512 -7.65356445 227.43481445 C-10.6193239 224.10656896 -10.90296299 220.80485425 -10.87060547 216.42041016 C-10.22944018 212.72674055 -8.15191435 210.92790811 -5.51123047 208.35009766 C-1.82619577 206.5075803 1.48966131 206.5158233 5.48876953 207.35009766 C7.6262207 208.84375 7.6262207 208.84375 9.84423828 210.93603516 C10.7135498 211.75346191 11.58286133 212.57088867 12.47851562 213.41308594 C13.4843984 214.38955719 14.48763302 215.36876084 15.48876953 216.35009766 C16.05565491 216.90534119 16.62254028 217.46058472 17.206604 218.03265381 C21.77156867 222.5219823 26.28852789 227.05838263 30.80126953 231.60009766 C32.15845483 232.96231257 33.51587524 234.32429328 34.87353516 235.68603516 C41.03110795 241.86365905 41.03110795 241.86365905 43.94841003 244.81004333 C45.40311809 246.26446318 46.88490034 247.69165696 48.36816406 249.11694336 C50.48876953 251.35009766 50.48876953 251.35009766 51.11767578 253.81494141 C51.08480469 255.03890625 51.08480469 255.03890625 51.05126953 256.28759766 C51.05255859 257.10099609 51.05384766 257.91439453 51.05517578 258.75244141 C49.4989025 265.88983268 43.11826309 271.01217039 38.14501953 275.95947266 C37.33891235 276.76749329 36.53280518 277.57551392 35.70227051 278.40802002 C34.00351566 280.10813151 32.30224991 281.80573738 30.59863281 283.50097656 C27.99066766 286.09820734 25.39357229 288.70596496 22.79736328 291.31494141 C21.1430565 292.96792705 19.48812967 294.62029243 17.83251953 296.27197266 C17.05638306 297.05215759 16.28024658 297.83234253 15.48059082 298.63616943 C14.75303589 299.35742004 14.02548096 300.07867065 13.27587891 300.82177734 C12.63952515 301.45653992 12.00317139 302.09130249 11.34753418 302.74530029 C7.10832482 306.40529673 3.36447144 306.83738884 -2.09716797 306.74072266 C-4.51123047 306.35009766 -4.51123047 306.35009766 -7.57373047 304.03759766 C-10.15369329 300.45893956 -11.17001857 297.0978593 -11.10498047 292.65087891 C-9.77402648 287.4934322 -5.19919486 283.96766037 -1.51123047 280.35009766 C-0.14804687 278.93470703 -0.14804687 278.93470703 1.24267578 277.49072266 C6.18780084 272.39443657 6.18780084 272.39443657 8.48876953 270.35009766 C9.14876953 270.35009766 9.80876953 270.35009766 10.48876953 270.35009766 C10.48876953 269.69009766 10.48876953 269.03009766 10.48876953 268.35009766 C9.4767749 268.36057129 8.46478027 268.37104492 7.42211914 268.38183594 C3.59207841 268.41861002 -0.23794749 268.44120216 -4.06811523 268.45996094 C-5.71169679 268.46989001 -7.35526133 268.48343776 -8.9987793 268.50097656 C-22.94878992 268.6458896 -36.56261522 268.04837683 -50.01123047 263.91259766 C-50.83381348 263.6609082 -51.65639648 263.40921875 -52.50390625 263.14990234 C-73.51449284 256.36265315 -91.60992704 245.57301783 -107.51123047 230.35009766 C-108.24599609 229.67849609 -108.98076172 229.00689453 -109.73779297 228.31494141 C-132.50192338 206.79760965 -147.38756495 173.88209091 -148.61962891 142.59765625 C-149.09039091 119.52645955 -149.09039091 119.52645955 -146.51123047 108.35009766 C-146.35525391 107.65142578 -146.19927734 106.95275391 -146.03857422 106.23291016 C-140.49367895 81.83537097 -129.37957425 61.79907688 -112.51123047 43.35009766 C-111.72361328 42.47998047 -110.93599609 41.60986328 -110.12451172 40.71337891 C-80.78849653 9.82570671 -41.14779604 0.20778879 0 0 Z " fill="#2A333E" transform="translate(259.51123046875,469.64990234375)"/>
<path d="M0 0 C1.26054703 -0.01606293 2.52109406 -0.03212585 3.81983948 -0.04867554 C5.21053376 -0.0601872 6.60123579 -0.07079156 7.99194336 -0.08056641 C9.05115903 -0.08855192 9.05115903 -0.08855192 10.13177299 -0.09669876 C13.89529203 -0.12350231 17.65877765 -0.14282318 21.42236328 -0.15722656 C24.48778497 -0.17036363 27.55250845 -0.19781423 30.61767578 -0.23925781 C68.40772291 -0.7381486 103.60925008 5.63179864 133.01928711 31.19287109 C133.84944336 31.90185547 134.67959961 32.61083984 135.53491211 33.34130859 C154.50511821 49.92569123 168.60400649 71.70935542 175.01928711 96.19287109 C175.27750244 97.16450195 175.53571777 98.13613281 175.80175781 99.13720703 C178.15299188 108.87292794 178.61509531 118.21521349 178.58178711 128.19287109 C178.58230072 129.00280518 178.58281433 129.81273926 178.58334351 130.6472168 C178.54655264 144.28436318 176.82259883 156.35536041 172.01928711 169.19287109 C171.61323242 170.40845703 171.20717773 171.62404297 170.78881836 172.87646484 C165.89834026 186.78011079 158.48409702 198.97505681 149.01928711 210.19287109 C148.17624023 211.20091797 147.33319336 212.20896484 146.46459961 213.24755859 C129.95681428 232.10660118 109.04567213 244.3704392 85.01928711 251.19287109 C83.24847778 251.7159082 83.24847778 251.7159082 81.44189453 252.24951172 C69.17352938 255.64208947 57.11948851 255.85581439 44.45678711 255.94287109 C42.36626848 255.971106 40.27577213 256.00104354 38.18530273 256.03271484 C33.13000541 256.10567341 28.07496962 256.15578863 23.01928711 256.19287109 C23.5896167 256.75796387 24.15994629 257.32305664 24.74755859 257.90527344 C27.31989386 260.45687464 29.88838048 263.01231568 32.45678711 265.56787109 C33.80353516 266.90205078 33.80353516 266.90205078 35.17749023 268.26318359 C36.45849609 269.53935547 36.45849609 269.53935547 37.76538086 270.84130859 C38.55614014 271.62683105 39.34689941 272.41235352 40.16162109 273.22167969 C42.66573404 275.87882358 42.98932672 276.79589592 43.26928711 280.50537109 C42.95040154 285.20893325 41.7349212 287.69077086 38.19897461 290.78662109 C34.19283033 293.37123031 30.58124624 293.1672238 26.01928711 292.19287109 C23.94189453 290.77929688 23.94189453 290.77929688 21.81225586 288.76318359 C20.94697266 287.94720703 20.08168945 287.13123047 19.19018555 286.29052734 C18.13131461 285.2599287 17.07455683 284.22715686 16.01928711 283.19287109 C15.0541217 282.25169434 15.0541217 282.25169434 14.06945801 281.29150391 C9.47214297 276.7987756 4.91127789 272.27063053 0.36621094 267.72509766 C-2.06369137 265.29741129 -4.5015252 262.87787356 -6.93969727 260.45849609 C-8.4864089 258.91471371 -10.03265041 257.37046013 -11.57836914 255.82568359 C-12.30741959 255.10381866 -13.03647003 254.38195374 -13.78761292 253.63821411 C-14.45598679 252.96676361 -15.12436066 252.29531311 -15.81298828 251.60351562 C-16.40237686 251.01555206 -16.99176544 250.4275885 -17.59901428 249.82180786 C-19.72867493 247.31107035 -19.99138575 245.09271045 -20.33618164 241.85693359 C-19.88861997 237.24360565 -18.51364602 235.83061648 -15.29321289 232.56787109 C-14.4230957 231.66810547 -13.55297852 230.76833984 -12.65649414 229.84130859 C-11.77348633 228.96732422 -10.89047852 228.09333984 -9.98071289 227.19287109 C-9.13250977 226.33306641 -8.28430664 225.47326172 -7.41040039 224.58740234 C-5.26325149 222.47132152 -3.06784682 220.48169238 -0.79321289 218.50537109 C5.3368533 213.05230162 11.04982468 207.18767413 16.77392578 201.31323242 C17.52262939 200.55292725 18.27133301 199.79262207 19.04272461 199.00927734 C19.71223145 198.32293213 20.38173828 197.63658691 21.0715332 196.92944336 C24.17782264 194.15994765 26.29881997 193.25836811 30.45678711 192.88037109 C34.93987027 193.273624 37.21237632 194.71208566 40.62084961 197.50537109 C42.96187575 200.33029649 42.67161377 203.02454976 42.55834961 206.57177734 C41.58156952 211.32119358 38.45954403 213.97372709 35.01928711 217.19287109 C33.66251878 218.54443109 32.30834711 219.89860277 30.95678711 221.25537109 C30.34706055 221.84447266 29.73733398 222.43357422 29.10913086 223.04052734 C27.2860597 224.91812025 25.58558958 226.83709133 23.88867188 228.82739258 C23.35065445 229.45765854 22.81263702 230.0879245 22.25831604 230.73728943 C21.84943649 231.21763138 21.44055695 231.69797333 21.01928711 232.19287109 C52.45168869 232.53490831 52.45168869 232.53490831 83.01928711 226.19287109 C84.15430664 225.81751221 84.15430664 225.81751221 85.31225586 225.43457031 C111.20834069 216.57039842 131.85589778 197.4209761 144.12426758 173.09228516 C155.73922307 148.44297972 157.49600952 120.6532857 148.60791016 94.84716797 C138.75457435 67.91995326 119.23947155 46.58558533 93.39428711 34.31787109 C78.53864341 27.58421121 63.95833282 24.90203877 47.71098709 24.9184761 C45.56588059 24.91945877 43.42125179 24.90630374 41.2762146 24.88949585 C35.18784004 24.84370495 29.09952794 24.81859063 23.01098633 24.81201172 C19.26219275 24.80698874 15.51391822 24.78272306 11.76530075 24.74668503 C10.34683731 24.73692758 8.92830223 24.73453286 7.50981522 24.73985672 C5.5293938 24.74695279 3.54893169 24.72751628 1.56860352 24.70703125 C0.44563873 24.70418121 -0.67732605 24.70133118 -1.83432007 24.69839478 C-6.46182619 23.95490403 -9.48206195 21.59161197 -12.85571289 18.44287109 C-14.57272934 15.0088382 -14.85035306 11.87685857 -13.98071289 8.19287109 C-10.1863967 2.13588928 -7.10128571 0.08224545 0 0 Z " fill="#2A333E" transform="translate(737.980712890625,247.80712890625)"/>
<path d="M0 0 C4.59742645 2.69395277 8.45786346 6.04196189 12.3125 9.6875 C12.92625488 10.2640332 13.54000977 10.84056641 14.17236328 11.43457031 C21.01817956 17.92524862 27.69568432 24.58894646 34.375 31.25 C34.94264069 31.81496185 35.51028137 32.37992371 36.09512329 32.96200562 C37.72003822 34.58110164 39.34115623 36.20389487 40.9609375 37.828125 C41.4550563 38.32026993 41.94917511 38.81241486 42.45826721 39.31947327 C45.90524862 42.79008122 47.19803058 44.74819383 47.5 49.625 C47.5721875 50.44226563 47.644375 51.25953125 47.71875 52.1015625 C46.5456997 56.83201534 43.34838502 59.56713265 40 63 C39.52822327 63.48505005 39.05644653 63.9701001 38.57037354 64.46984863 C35.19985406 67.92606266 31.79535665 71.34706027 28.37573242 74.75463867 C26.56639067 76.55862085 24.76245681 78.36788665 22.95898438 80.17773438 C3.69947082 99.44901498 3.69947082 99.44901498 -2.9375 100.4375 C-6.86292527 99.87672496 -8.94797605 98.49711051 -12 96 C-14.07842903 92.52151809 -14.7798461 89.52738881 -14.70703125 85.49609375 C-13.44290679 81.03324553 -10.03042535 78.4758359 -6.6796875 75.43359375 C-3.65626439 72.68783194 -1.0833349 69.7239986 1.52734375 66.59375 C3 65 3 65 6 63 C5.33554556 62.99853344 4.67109112 62.99706688 3.98650169 62.99555588 C-12.18874272 62.95848781 -28.3637435 62.8994733 -44.53881264 62.81609726 C-52.36100224 62.77630502 -60.18309122 62.74391352 -68.00537109 62.72900391 C-74.82409105 62.71598828 -81.6425896 62.68902612 -88.46118486 62.64538693 C-92.07090512 62.62276981 -95.68035229 62.60708945 -99.29014969 62.60811615 C-103.32216411 62.60900143 -107.35337316 62.57874755 -111.38525391 62.54589844 C-112.57927826 62.5509288 -113.77330261 62.55595917 -115.00350952 62.56114197 C-121.28624506 62.48182842 -125.26042541 62.29517542 -130 58 C-132.37302167 55.07327328 -132.95966626 53.31690796 -133.4375 49.5625 C-132.91894272 45.33996212 -131.66649168 43.2759755 -129 40 C-125.63755082 37.75836721 -124.5563426 37.75202974 -120.62800598 37.75949097 C-119.51321365 37.75674164 -118.39842133 37.75399231 -117.24984741 37.75115967 C-116.02633575 37.75835022 -114.8028241 37.76554077 -113.54223633 37.77294922 C-111.61037224 37.77251114 -111.61037224 37.77251114 -109.63948059 37.77206421 C-106.1066574 37.77148973 -102.57396966 37.78325929 -99.04117799 37.79721212 C-95.34961777 37.80970373 -91.65805454 37.81088874 -87.96647644 37.81326294 C-80.97543441 37.81948233 -73.98445484 37.83589934 -66.99344033 37.85596192 C-59.03464343 37.87830665 -51.07584356 37.88931076 -43.11702311 37.89935279 C-26.7446455 37.92026518 -10.37233071 37.95545006 6 38 C6 37.34 6 36.68 6 36 C5.41992188 35.75894531 4.83984375 35.51789062 4.2421875 35.26953125 C1.57590341 33.75987563 0.08826745 32.03317095 -1.875 29.6875 C-4.23966775 26.93460322 -6.51844653 24.42793409 -9.375 22.1875 C-12.42809508 19.6432541 -13.69491981 17.76625372 -14.37109375 13.8515625 C-14.4973398 9.61860669 -14.37350209 6.85657778 -11.625 3.5 C-7.66734541 -0.26919485 -5.44976251 -0.45414688 0 0 Z " fill="#2A343F" transform="translate(846,677)"/>
<path d="M0 0 C5.06269712 2.87685296 8.85288831 6.64323788 12.875 10.8125 C16.42803191 14.47332052 19.98964167 18.04275702 23.859375 21.37109375 C28.58457114 25.44613304 32.97555501 29.82881146 37.375 34.25 C38.58349609 35.45269531 38.58349609 35.45269531 39.81640625 36.6796875 C40.58597656 37.45054687 41.35554687 38.22140625 42.1484375 39.015625 C42.84114746 39.70946289 43.53385742 40.40330078 44.24755859 41.11816406 C47.82732507 44.96224876 48.56921336 47.51845969 48.4375 52.59765625 C47.39295095 58.33334972 43.00049629 62.25689578 38.671875 65.84765625 C34.67357343 69.30291042 30.95021297 72.98597664 27.234375 76.73828125 C26.32691528 77.65404938 26.32691528 77.65404938 25.40112305 78.58831787 C22.87182838 81.14522022 20.34633229 83.70580526 17.82519531 86.27075195 C15.96596653 88.16014451 14.10059486 90.04329739 12.234375 91.92578125 C11.66765076 92.50596512 11.10092651 93.08614899 10.51702881 93.68391418 C6.23589747 97.99211014 3.22014789 100.26818601 -2.875 100.5625 C-6.81465539 100.46925372 -8.85647504 99.91012567 -11.625 97.0625 C-14.03438123 93.60465604 -15.08325053 90.60169036 -14.76171875 86.37890625 C-12.37252262 78.91726294 -4.32971301 73.33800002 1.328125 68.1796875 C1.87678223 67.67816162 2.42543945 67.17663574 2.99072266 66.65991211 C4.32642821 65.43915289 5.66311105 64.21946313 7 63 C6.01104894 62.99918285 6.01104894 62.99918285 5.00211906 62.99834919 C-11.04797842 62.983375 -27.09773276 62.9409027 -43.14766121 62.86790943 C-50.9093451 62.83327171 -58.67085162 62.80790553 -66.43261719 62.80444336 C-73.19863007 62.80140174 -79.96432697 62.78088509 -86.73021781 62.73947543 C-90.31205544 62.71816115 -93.89344403 62.7055364 -97.47534561 62.71384621 C-101.476356 62.72280063 -105.476169 62.69273691 -109.47705078 62.65942383 C-111.2540612 62.67236229 -111.2540612 62.67236229 -113.06697083 62.68556213 C-122.02329645 62.56036978 -122.02329645 62.56036978 -125.72018433 59.58378601 C-129.29665702 55.53045827 -129.39726168 52.75872439 -129.3515625 47.48046875 C-129 45 -129 45 -126.75 42 C-122.5743642 38.96317396 -119.938207 37.74912708 -114.73553467 37.75949097 C-113.6698526 37.75674164 -112.60417053 37.75399231 -111.50619507 37.75115967 C-109.76047714 37.7619455 -109.76047714 37.7619455 -107.97949219 37.77294922 C-106.13519119 37.77251114 -106.13519119 37.77251114 -104.25363159 37.77206421 C-100.88611095 37.77321847 -97.5188358 37.78324604 -94.1513586 37.79721212 C-90.63063722 37.80971815 -87.10991253 37.81088988 -83.58917236 37.81326294 C-76.92398902 37.81947809 -70.25887131 37.83588937 -63.59371686 37.85596192 C-56.00490228 37.87831984 -48.41608456 37.88931408 -40.82724524 37.89935279 C-25.21812548 37.92025557 -9.60907121 37.95543222 6 38 C6 37.34 6 36.68 6 36 C5.34 36 4.68 36 4 36 C2.625 34.6015625 2.625 34.6015625 1 32.625 C-2.74969468 28.19498097 -6.80903066 24.15312113 -10.9609375 20.1015625 C-14.31549411 16.64418423 -14.38944648 13.98920399 -14.359375 9.328125 C-13.75455722 5.40995764 -11.83123243 3.69641184 -9 1 C-5.89046621 -0.5547669 -3.43733239 -0.28644437 0 0 Z " fill="#2B3440" transform="translate(249,210)"/>
<path d="M0 0 C3.52317582 3.34701703 6.00660215 7.22177426 8.5 11.375 C8.87769531 11.9628125 9.25539063 12.550625 9.64453125 13.15625 C12.23424314 19.87294567 11.47467376 29.12847637 9.4375 35.9140625 C5.56788293 44.22112089 0.23762248 49.81808239 -8 53.8125 C-15.61590831 56.53583563 -26.48130955 57.24494564 -34 53.8125 C-35.76953125 52.69140625 -35.76953125 52.69140625 -37.5 51.375 C-38.18449219 50.88902344 -38.86898437 50.40304687 -39.57421875 49.90234375 C-45.88201132 44.97037285 -48.99964603 38.87606191 -51.5 31.375 C-52.34028773 20.78186447 -51.43181728 12.06995042 -44.75 3.5625 C-32.44418803 -9.58023118 -14.53345158 -9.44674353 0 0 Z " fill="#FC8C0E" transform="translate(687.5,386.625)"/>
<path d="M0 0 C6.27 0 12.54 0 19 0 C19 0.33 19 0.66 19 1 C15.04 1 11.08 1 7 1 C7.00666183 1.84667236 7.01332367 2.69334473 7.02018738 3.56567383 C7.08045179 11.56873348 7.12605208 19.57171623 7.15543652 27.57495117 C7.17105153 31.68890105 7.19221302 35.80266247 7.22631836 39.91650391 C7.25906131 43.89116249 7.27688429 47.86564048 7.28463173 51.84042358 C7.29014857 53.35219157 7.30092134 54.86395036 7.31719017 56.37564087 C7.46782123 70.96036289 7.46782123 70.96036289 4 78 C3 75 3 75 4 72 C4.11812495 69.74660334 4.17696645 67.48995504 4.20532227 65.23364258 C4.21522186 64.55045456 4.22512146 63.86726654 4.23532104 63.16337585 C4.26688679 60.90712947 4.2916739 58.65086203 4.31640625 56.39453125 C4.33698004 54.82939611 4.35797662 53.26426648 4.37937927 51.69914246 C4.43455609 47.58102884 4.48398471 43.46286544 4.53222656 39.34466553 C4.58247365 35.14184136 4.63814297 30.93908942 4.69335938 26.73632812 C4.80088726 18.4909465 4.90234413 10.24550442 5 2 C3.35 1.67 1.7 1.34 0 1 C0 0.67 0 0.34 0 0 Z " fill="#63E1C2" transform="translate(655,466)"/>
<path d="M0 0 C0.33 0.99 0.66 1.98 1 3 C0.0479279 4.00596297 -0.91187346 5.00461563 -1.875 6 C-2.40867187 6.556875 -2.94234375 7.11375 -3.4921875 7.6875 C-5 9 -5 9 -7 9 C-7.2475 9.598125 -7.495 10.19625 -7.75 10.8125 C-9.16370012 13.28647521 -10.65055383 14.43370255 -13 16 C-12.45222723 12.26369914 -11.08844515 10.89294387 -8.1875 8.5625 C-5.03804643 5.93889775 -2.42465601 3.33390202 0 0 Z " fill="#404752" transform="translate(734,469)"/>
<path d="M0 0 C0.66 0 1.32 0 2 0 C0.59155282 3.21524305 -1.10344786 5.32183868 -3.625 7.75 C-4.57246094 8.67039062 -4.57246094 8.67039062 -5.5390625 9.609375 C-6.02117187 10.06828125 -6.50328125 10.5271875 -7 11 C-7.66 10.67 -8.32 10.34 -9 10 C-7.8758824 8.70756532 -6.75067408 7.41607925 -5.625 6.125 C-4.99851563 5.40570312 -4.37203125 4.68640625 -3.7265625 3.9453125 C-2.52573166 2.5923402 -1.2791655 1.2791655 0 0 Z " fill="#39414C" transform="translate(259,749)"/>
<path d="M0 0 C0.33 0.66 0.66 1.32 1 2 C-1.97 2 -4.94 2 -8 2 C-8.66 3.32 -9.32 4.64 -10 6 C-10.99 6.33 -11.98 6.66 -13 7 C-10.30332745 0.48304134 -6.81821784 -0.39335872 0 0 Z " fill="#37404B" transform="translate(249,210)"/>
<path d="M0 0 C0.99 0.33 1.98 0.66 3 1 C1.88200014 2.33920838 0.75538103 3.67122556 -0.375 5 C-1.00148438 5.7425 -1.62796875 6.485 -2.2734375 7.25 C-3.12808594 8.11625 -3.12808594 8.11625 -4 9 C-4.66 9 -5.32 9 -6 9 C-4.68775452 5.06326356 -3.08089673 2.77280706 0 0 Z " fill="#2BCBD7" transform="translate(370,430)"/>
<path d="M0 0 C0.66 0.33 1.32 0.66 2 1 C0.71451591 2.33929505 -0.57858155 3.67128643 -1.875 5 C-2.59429688 5.7425 -3.31359375 6.485 -4.0546875 7.25 C-6 9 -6 9 -8 9 C-6.4169423 4.7257442 -3.49431596 2.73468206 0 0 Z " fill="#F9A833" transform="translate(650,384)"/>
</svg>
